<?xml version="1.0" encoding="UTF-8"?>
<svg xmlns="http://www.w3.org/2000/svg" xmlns:xlink="http://www.w3.org/1999/xlink" width="40px" height="40px" viewBox="0 0 40 40" version="1.1">
<g id="surface1">
<path style=" stroke:none;fill-rule:nonzero;fill:rgb(0%,0%,0%);fill-opacity:1;" d="M 32.273438 21.425781 L 30.324219 21.425781 L 30.324219 10.246094 C 30.324219 9.84375 30 9.519531 29.597656 9.519531 C 29.195312 9.519531 28.871094 9.84375 28.871094 10.246094 L 28.871094 21.425781 L 11.128906 21.425781 L 11.128906 4.574219 L 16.945312 4.574219 L 16.945312 11.996094 C 16.945312 12.273438 17.097656 12.523438 17.347656 12.648438 C 17.59375 12.769531 17.886719 12.742188 18.109375 12.578125 L 20 11.160156 L 21.890625 12.578125 C 22.019531 12.675781 22.175781 12.722656 22.328125 12.722656 C 22.441406 12.722656 22.550781 12.699219 22.652344 12.648438 C 22.902344 12.523438 23.054688 12.273438 23.054688 11.996094 L 23.054688 4.574219 L 28.871094 4.574219 L 28.871094 7.335938 C 28.871094 7.738281 29.195312 8.066406 29.597656 8.066406 C 30 8.066406 30.324219 7.738281 30.324219 7.335938 L 30.324219 3.847656 C 30.324219 3.445312 30 3.117188 29.597656 3.117188 L 10.402344 3.117188 C 10 3.117188 9.675781 3.445312 9.675781 3.847656 L 9.675781 21.425781 L 7.726562 21.425781 C 3.464844 21.425781 0 24.890625 0 29.152344 C 0 33.414062 3.464844 36.882812 7.726562 36.882812 L 32.273438 36.882812 C 32.675781 36.882812 33 36.554688 33 36.152344 C 33 35.75 32.675781 35.425781 32.273438 35.425781 L 7.726562 35.425781 C 4.269531 35.425781 1.457031 32.613281 1.457031 29.152344 C 1.457031 25.695312 4.269531 22.882812 7.726562 22.882812 L 32.273438 22.882812 C 35.730469 22.882812 38.542969 25.695312 38.542969 29.152344 C 38.542969 31.679688 37.039062 33.949219 34.714844 34.933594 C 34.34375 35.089844 34.171875 35.515625 34.328125 35.886719 C 34.484375 36.257812 34.910156 36.429688 35.28125 36.273438 C 38.148438 35.0625 40 32.265625 40 29.152344 C 40 24.890625 36.535156 21.425781 32.273438 21.425781 Z M 18.398438 4.574219 L 21.601562 4.574219 L 21.601562 10.539062 L 20.4375 9.667969 C 20.308594 9.570312 20.152344 9.523438 20 9.523438 C 19.847656 9.523438 19.691406 9.570312 19.5625 9.667969 L 18.398438 10.539062 Z M 18.398438 4.574219 "/>
<path style=" stroke:none;fill-rule:nonzero;fill:rgb(0%,0%,0%);fill-opacity:1;" d="M 10.535156 26.320312 C 10.25 26.039062 9.789062 26.039062 9.503906 26.320312 C 9.21875 26.605469 9.21875 27.066406 9.503906 27.351562 C 9.988281 27.832031 10.25 28.472656 10.25 29.152344 C 10.25 30.558594 9.109375 31.703125 7.703125 31.703125 C 6.296875 31.703125 5.152344 30.558594 5.152344 29.152344 C 5.152344 27.746094 6.296875 26.605469 7.703125 26.605469 C 8.105469 26.605469 8.429688 26.277344 8.429688 25.875 C 8.429688 25.476562 8.105469 25.148438 7.703125 25.148438 C 5.492188 25.148438 3.699219 26.945312 3.699219 29.152344 C 3.699219 31.363281 5.492188 33.160156 7.703125 33.160156 C 9.910156 33.160156 11.707031 31.363281 11.707031 29.152344 C 11.707031 28.082031 11.289062 27.078125 10.535156 26.320312 Z M 10.535156 26.320312 "/>
<path style=" stroke:none;fill-rule:nonzero;fill:rgb(0%,0%,0%);fill-opacity:1;" d="M 20 25.148438 C 17.792969 25.148438 15.996094 26.945312 15.996094 29.152344 C 15.996094 31.363281 17.792969 33.160156 20 33.160156 C 22.207031 33.160156 24.003906 31.363281 24.003906 29.152344 C 24.003906 26.945312 22.207031 25.148438 20 25.148438 Z M 20 31.703125 C 18.59375 31.703125 17.449219 30.558594 17.449219 29.152344 C 17.449219 27.746094 18.59375 26.605469 20 26.605469 C 21.40625 26.605469 22.550781 27.746094 22.550781 29.152344 C 22.550781 30.558594 21.40625 31.703125 20 31.703125 Z M 20 31.703125 "/>
<path style=" stroke:none;fill-rule:nonzero;fill:rgb(0%,0%,0%);fill-opacity:1;" d="M 32.296875 25.148438 C 30.089844 25.148438 28.292969 26.945312 28.292969 29.152344 C 28.292969 31.363281 30.089844 33.160156 32.296875 33.160156 C 34.507812 33.160156 36.304688 31.363281 36.304688 29.152344 C 36.304688 26.945312 34.507812 25.148438 32.296875 25.148438 Z M 32.296875 31.703125 C 30.890625 31.703125 29.75 30.558594 29.75 29.152344 C 29.75 27.746094 30.890625 26.605469 32.296875 26.605469 C 33.703125 26.605469 34.847656 27.746094 34.847656 29.152344 C 34.847656 30.558594 33.703125 31.703125 32.296875 31.703125 Z M 32.296875 31.703125 "/>
</g>
</svg>
